<mxfile host="app.diagrams.net" agent="Mozilla/5.0 (Windows NT 10.0; Win64; x64) AppleWebKit/537.36 (KHTML, like Gecko) Chrome/129.0.0.0 Safari/537.36 Edg/129.0.0.0" version="24.7.16">
  <diagram name="Stránka-1" id="qkX6AHSKjANkAGu_YV88">
    <mxGraphModel dx="1042" dy="565" grid="1" gridSize="10" guides="1" tooltips="1" connect="1" arrows="1" fold="1" page="1" pageScale="1" pageWidth="827" pageHeight="1169" math="0" shadow="0">
      <root>
        <mxCell id="0" />
        <mxCell id="1" parent="0" />
        <mxCell id="2pk8QEHMLG-dqoJuMAl3-19" style="edgeStyle=orthogonalEdgeStyle;rounded=0;orthogonalLoop=1;jettySize=auto;html=1;exitX=0;exitY=0.5;exitDx=0;exitDy=0;entryX=0.5;entryY=0;entryDx=0;entryDy=0;" edge="1" parent="1">
          <mxGeometry relative="1" as="geometry">
            <mxPoint x="200" y="480" as="targetPoint" />
            <mxPoint x="320" y="320" as="sourcePoint" />
            <Array as="points">
              <mxPoint x="200" y="320" />
            </Array>
          </mxGeometry>
        </mxCell>
        <mxCell id="2pk8QEHMLG-dqoJuMAl3-33" value="&lt;font style=&quot;font-size: 18px;&quot;&gt;&lt;b&gt;Pravda&lt;/b&gt;&lt;/font&gt;" style="edgeLabel;html=1;align=center;verticalAlign=middle;resizable=0;points=[];" vertex="1" connectable="0" parent="2pk8QEHMLG-dqoJuMAl3-19">
          <mxGeometry x="0.43" relative="1" as="geometry">
            <mxPoint as="offset" />
          </mxGeometry>
        </mxCell>
        <mxCell id="2pk8QEHMLG-dqoJuMAl3-30" style="edgeStyle=orthogonalEdgeStyle;rounded=0;orthogonalLoop=1;jettySize=auto;html=1;exitX=1;exitY=0.5;exitDx=0;exitDy=0;" edge="1" parent="1" source="l2BtkieYjGW8_pZ3h7ge-6">
          <mxGeometry relative="1" as="geometry">
            <mxPoint x="600" y="360" as="targetPoint" />
            <Array as="points">
              <mxPoint x="601" y="320" />
            </Array>
          </mxGeometry>
        </mxCell>
        <mxCell id="2pk8QEHMLG-dqoJuMAl3-31" value="&lt;font style=&quot;font-size: 18px;&quot;&gt;&lt;b&gt;Nepravda&lt;/b&gt;&lt;/font&gt;" style="edgeLabel;html=1;align=center;verticalAlign=middle;resizable=0;points=[];" vertex="1" connectable="0" parent="2pk8QEHMLG-dqoJuMAl3-30">
          <mxGeometry x="-0.2995" y="-2" relative="1" as="geometry">
            <mxPoint as="offset" />
          </mxGeometry>
        </mxCell>
        <mxCell id="l2BtkieYjGW8_pZ3h7ge-6" value="&lt;font style=&quot;font-size: 18px;&quot;&gt;y=0&lt;/font&gt;" style="rhombus;whiteSpace=wrap;html=1;" parent="1" vertex="1">
          <mxGeometry x="320" y="270" width="120" height="100" as="geometry" />
        </mxCell>
        <mxCell id="2pk8QEHMLG-dqoJuMAl3-7" style="edgeStyle=orthogonalEdgeStyle;rounded=0;orthogonalLoop=1;jettySize=auto;html=1;entryX=0.5;entryY=0;entryDx=0;entryDy=0;" edge="1" parent="1" source="l2BtkieYjGW8_pZ3h7ge-11" target="l2BtkieYjGW8_pZ3h7ge-12">
          <mxGeometry relative="1" as="geometry" />
        </mxCell>
        <mxCell id="l2BtkieYjGW8_pZ3h7ge-11" value="&lt;font style=&quot;font-size: 24px;&quot;&gt;&lt;b&gt;Start&lt;/b&gt;&lt;/font&gt;" style="ellipse;whiteSpace=wrap;html=1;" parent="1" vertex="1">
          <mxGeometry x="320" y="50" width="120" height="80" as="geometry" />
        </mxCell>
        <mxCell id="2pk8QEHMLG-dqoJuMAl3-8" style="edgeStyle=orthogonalEdgeStyle;rounded=0;orthogonalLoop=1;jettySize=auto;html=1;entryX=0.5;entryY=0;entryDx=0;entryDy=0;" edge="1" parent="1" source="l2BtkieYjGW8_pZ3h7ge-12" target="l2BtkieYjGW8_pZ3h7ge-6">
          <mxGeometry relative="1" as="geometry" />
        </mxCell>
        <mxCell id="l2BtkieYjGW8_pZ3h7ge-12" value="&lt;font style=&quot;font-size: 18px;&quot;&gt;vstup x,y&lt;/font&gt;" style="shape=parallelogram;perimeter=parallelogramPerimeter;whiteSpace=wrap;html=1;fixedSize=1;" parent="1" vertex="1">
          <mxGeometry x="320" y="180" width="120" height="60" as="geometry" />
        </mxCell>
        <mxCell id="2pk8QEHMLG-dqoJuMAl3-18" value="&lt;font style=&quot;font-size: 18px;&quot;&gt;Výstup: Nulou nelze dělit !&lt;/font&gt;" style="shape=parallelogram;perimeter=parallelogramPerimeter;whiteSpace=wrap;html=1;fixedSize=1;" vertex="1" parent="1">
          <mxGeometry x="80" y="480" width="300" height="70" as="geometry" />
        </mxCell>
        <mxCell id="2pk8QEHMLG-dqoJuMAl3-28" value="" style="endArrow=classic;html=1;rounded=0;" edge="1" parent="1" target="2pk8QEHMLG-dqoJuMAl3-43">
          <mxGeometry width="50" height="50" relative="1" as="geometry">
            <mxPoint x="200" y="640" as="sourcePoint" />
            <mxPoint x="410" y="640" as="targetPoint" />
          </mxGeometry>
        </mxCell>
        <mxCell id="2pk8QEHMLG-dqoJuMAl3-35" style="edgeStyle=orthogonalEdgeStyle;rounded=0;orthogonalLoop=1;jettySize=auto;html=1;" edge="1" parent="1" source="2pk8QEHMLG-dqoJuMAl3-34">
          <mxGeometry relative="1" as="geometry">
            <mxPoint x="600" y="480" as="targetPoint" />
          </mxGeometry>
        </mxCell>
        <mxCell id="2pk8QEHMLG-dqoJuMAl3-34" value="&lt;font style=&quot;font-size: 18px;&quot;&gt;&amp;nbsp; v = zaokrouhli_dolu( x / y )&lt;/font&gt;&lt;div&gt;&lt;font size=&quot;3&quot;&gt;&amp;nbsp; &amp;nbsp; &amp;nbsp; &amp;nbsp;zbytek = x - ( v * y )&lt;/font&gt;&lt;/div&gt;" style="rounded=0;whiteSpace=wrap;html=1;align=left;" vertex="1" parent="1">
          <mxGeometry x="480" y="360" width="240" height="60" as="geometry" />
        </mxCell>
        <mxCell id="2pk8QEHMLG-dqoJuMAl3-44" style="edgeStyle=orthogonalEdgeStyle;rounded=0;orthogonalLoop=1;jettySize=auto;html=1;entryX=1;entryY=0.5;entryDx=0;entryDy=0;" edge="1" parent="1" source="2pk8QEHMLG-dqoJuMAl3-38" target="2pk8QEHMLG-dqoJuMAl3-43">
          <mxGeometry relative="1" as="geometry">
            <Array as="points">
              <mxPoint x="600" y="638" />
            </Array>
          </mxGeometry>
        </mxCell>
        <mxCell id="2pk8QEHMLG-dqoJuMAl3-38" value="&lt;font style=&quot;font-size: 18px;&quot;&gt;výstup: zbytek&lt;/font&gt;" style="shape=parallelogram;perimeter=parallelogramPerimeter;whiteSpace=wrap;html=1;fixedSize=1;" vertex="1" parent="1">
          <mxGeometry x="515" y="480" width="170" height="50" as="geometry" />
        </mxCell>
        <mxCell id="2pk8QEHMLG-dqoJuMAl3-42" value="" style="endArrow=none;html=1;rounded=0;entryX=0.399;entryY=1;entryDx=0;entryDy=0;entryPerimeter=0;" edge="1" parent="1" target="2pk8QEHMLG-dqoJuMAl3-18">
          <mxGeometry width="50" height="50" relative="1" as="geometry">
            <mxPoint x="200" y="640" as="sourcePoint" />
            <mxPoint x="210" y="560" as="targetPoint" />
          </mxGeometry>
        </mxCell>
        <mxCell id="2pk8QEHMLG-dqoJuMAl3-45" style="edgeStyle=orthogonalEdgeStyle;rounded=0;orthogonalLoop=1;jettySize=auto;html=1;" edge="1" parent="1" source="2pk8QEHMLG-dqoJuMAl3-43">
          <mxGeometry relative="1" as="geometry">
            <mxPoint x="439" y="720" as="targetPoint" />
          </mxGeometry>
        </mxCell>
        <mxCell id="2pk8QEHMLG-dqoJuMAl3-43" value="" style="ellipse;whiteSpace=wrap;html=1;aspect=fixed;" vertex="1" parent="1">
          <mxGeometry x="414" y="613" width="50" height="50" as="geometry" />
        </mxCell>
        <mxCell id="2pk8QEHMLG-dqoJuMAl3-46" value="&lt;b&gt;&lt;font style=&quot;font-size: 24px;&quot;&gt;Konec&lt;/font&gt;&lt;/b&gt;" style="ellipse;whiteSpace=wrap;html=1;" vertex="1" parent="1">
          <mxGeometry x="375" y="721" width="131" height="50" as="geometry" />
        </mxCell>
      </root>
    </mxGraphModel>
  </diagram>
</mxfile>
